<svg xmlns="http://www.w3.org/2000/svg" version="1.1" xmlns:xlink="http://www.w3.org/1999/xlink" xmlns:svgjs="http://svgjs.com/svgjs" width="1440" height="560" preserveAspectRatio="none" viewBox="0 0 1440 560"><g mask="url(&quot;#SvgjsMask1060&quot;)" fill="none"><rect width="1440" height="560" x="0" y="0" fill="rgba(62, 173, 243, 1)"></rect><path d="M0,515.451C94.79,517.666,152.096,412.005,232.916,362.425C316.047,311.428,435.055,305.637,481.668,219.97C528.411,134.065,485.374,28.895,466.624,-67.09C448.769,-158.494,436.894,-255.345,375.193,-325.106C313.748,-394.577,218.398,-415.166,131.09,-446.453C38.278,-479.712,-58.719,-548.812,-150.806,-513.597C-243.276,-478.236,-265.104,-359.074,-317.334,-274.972C-360.686,-205.166,-407.117,-140.552,-431.259,-62.006C-459.033,28.357,-509.48,128.799,-467.468,213.486C-425.404,298.278,-305.532,300.344,-226.025,351.702C-146.26,403.227,-94.933,513.233,0,515.451" fill="#30a7f2"></path><path d="M1440 1175.159C1561.074 1179.423 1688.378 1170.491 1788.571 1102.386 1887.7649999999999 1034.96 1932.282 916.669 1981.3110000000001 807.208 2030.005 698.496 2090.8630000000003 586.752 2072.23 469.099 2053.683 351.991 1956.179 269.529 1881.565 177.382 1804.228 81.87299999999999 1743.5140000000001-38.21900000000005 1627.838-79.71699999999998 1510.286-121.88800000000003 1378.437-90.99199999999996 1262.436-44.726999999999975 1153.076-1.11099999999999 1071.308 84.74200000000002 993.636 173.224 915.504 262.23 813.589 351.156 810.982 469.56100000000004 808.4 586.853 929.22 664.327 980.501 769.846 1030.0819999999999 871.8679999999999 1021.7909999999999 1003.3430000000001 1106.858 1078.379 1195.373 1156.4560000000001 1322.044 1171.005 1440 1175.159" fill="#4cb3f4"></path></g><defs><mask id="SvgjsMask1060"><rect width="1440" height="560" fill="#ffffff"></rect></mask></defs></svg>